<svg xmlns="http://www.w3.org/2000/svg" xmlns:xlink="http://www.w3.org/1999/xlink" viewBox="0 0 177.56 95.09"><defs><style>.cls-1{fill:none;}.cls-2{clip-path:url(#clip-path);}.cls-3{fill:#1a1a1a;}</style><clipPath id="clip-path" transform="translate(0 0)"><rect class="cls-1" width="177.56" height="95.09"/></clipPath></defs><g id="Camada_2" data-name="Camada 2"><g id="Camada_1-2" data-name="Camada 1"><g id="Arte_1" data-name="Arte 1"><g class="cls-2"><g class="cls-2"><path class="cls-3" d="M175.81,12.2C171.54,2.74,161.3-.09,157.59,0a43,43,0,0,0-7.94,1.2s-.43.1-.88.23C143,3,135.61,7.17,129.24,9.07a38.85,38.85,0,0,1-12.46,1.49,40.52,40.52,0,0,1-13.07-2.22c-.7-.26-1.76-.69-3.38-1.16a41.21,41.21,0,0,0-7.27-1.24A48.61,48.61,0,0,0,72.59,8.82,46.64,46.64,0,0,0,59,18.05a36,36,0,0,0-6.29,8.27c-.5.93-1.19,2.33-2.44,4.39s-2.56,3.92-3.13,4.68a40,40,0,0,1-9.2,8.44c-4.39,3-8.95,4.82-18.06,8.4-5,2-5.36,1.92-7.21,3C9.78,56.81,4.89,59.57,2.06,65.27-2.09,73.64,1.28,82,1.49,82.49A21.26,21.26,0,0,0,13.18,93.68c.77.32,1.39.53,1.55.58,1.58.51,5.66,1.61,12.85-.06A71.28,71.28,0,0,0,37,90.86c3.77-1.49,6.85-2.79,8.92-3.7A44.08,44.08,0,0,1,64,84.84c8.72.76,10.72,3.74,20.21,4.57a43.26,43.26,0,0,0,20-2.55,38.7,38.7,0,0,0,7.9-4.21,39.67,39.67,0,0,0,7.13-5.85,44,44,0,0,0,5.65-7.56c2.13-3.36,2.09-4,3.88-6.69a49.56,49.56,0,0,1,5.57-6.77c4.83-4.83,9.92-7.08,15.8-9.83a102.57,102.57,0,0,1,12.56-4.88c1.25-.44,10-3.67,13.49-13.06a21.28,21.28,0,0,0-.41-15.81M108.41,56A20.79,20.79,0,1,1,97.6,28.69,20.78,20.78,0,0,1,108.41,56" transform="translate(0 0)"/></g></g></g></g></g></svg>